<?xml version="1.0" encoding="iso-8859-1"?>
<!-- Generator: Adobe Illustrator 19.0.0, SVG Export Plug-In . SVG Version: 6.00 Build 0)  -->
<svg version="1.1" id="Layer_1" xmlns="http://www.w3.org/2000/svg" xmlns:xlink="http://www.w3.org/1999/xlink" x="0px" y="0px"
	 viewBox="0 0 512 512" style="enable-background:new 0 0 512 512;" xml:space="preserve">
<path style="fill:#FFE477;" d="M322.109,408.389c0,36.183-75.762,65.514-111.945,65.514s-65.514-29.331-65.514-65.514
	s29.331-65.514,65.514-65.514S322.109,372.206,322.109,408.389z"/>
<g>
	<path style="fill:#FFDA44;" d="M316.609,391.419c-7.242,33.54-77.041,59.872-111.322,59.872c-27.342,0-50.761-16.755-60.579-40.552
		c1.239,35.092,30.06,63.165,65.454,63.165c36.183,0,111.945-29.331,111.945-65.514
		C322.109,402.519,320.104,396.831,316.609,391.419z"/>
	<path style="fill:#FFDA44;" d="M343.763,373.638c19.193,0,21.204,15.559,21.204,34.751c0,19.193-2.011,34.751-21.204,34.751
		s-64.514-15.559-64.514-34.751C279.249,389.196,324.571,373.638,343.763,373.638z"/>
	<path style="fill:#FFDA44;" d="M214.704,407.537c9.646,2.258,30.583,15.406,28.325,25.052c-2.258,9.646-26.854,12.139-36.5,9.882
		c-9.646-2.258-15.637-11.908-13.379-21.554C195.406,411.27,205.057,405.279,214.704,407.537z"/>
</g>
<path style="fill:#3E3D42;" d="M192.673,392.046c-2.43,0-4.798-0.982-6.503-2.7c-1.719-1.706-2.7-4.087-2.7-6.503
	c0-2.418,0.981-4.798,2.7-6.504c1.705-1.718,4.073-2.699,6.503-2.699c2.429,0,4.798,0.981,6.503,2.699
	c1.719,1.706,2.7,4.087,2.7,6.504c0,2.417-0.981,4.798-2.7,6.503C197.471,391.064,195.102,392.046,192.673,392.046z"/>
<g>
	<path style="fill:#FFCD00;" d="M215.732,430.205c-9.481-2.219-15.411-11.581-13.469-21.06c-4.437,2.34-7.882,6.502-9.114,11.77
		c-2.258,9.646,3.732,19.297,13.379,21.554c9.646,2.258,34.243-0.235,36.5-9.882c0.332-1.419,0.152-2.915-0.411-4.441
		C233.984,431.154,221.852,431.638,215.732,430.205z"/>
	<path style="fill:#FFCD00;" d="M349.773,423.825c-17.219,0-55.462-12.524-63.147-28.959c-4.546,4.157-7.377,8.726-7.377,13.522
		c0,19.193,45.322,34.751,64.514,34.751c15.807,0,19.958-10.559,20.93-25.005C361.528,421.728,356.809,423.825,349.773,423.825z"/>
</g>
<path style="fill:#7ED63E;" d="M469.14,250.173c0,36.183-75.762,65.514-111.945,65.514s-65.514-29.331-65.514-65.514
	s29.331-65.514,65.514-65.514S469.14,213.991,469.14,250.173z"/>
<g>
	<path style="fill:#6DC82A;" d="M463.642,233.202c-7.242,33.54-77.041,59.872-111.322,59.872c-27.342,0-50.761-16.755-60.579-40.552
		c1.239,35.092,30.06,63.165,65.454,63.165c36.183,0,111.945-29.331,111.945-65.514C469.14,244.303,467.137,238.616,463.642,233.202
		z"/>
	<path style="fill:#6DC82A;" d="M490.796,215.421c19.193,0,21.204,15.559,21.204,34.751s-2.011,34.751-21.204,34.751
		s-64.514-15.559-64.514-34.751S471.603,215.421,490.796,215.421z"/>
	<path style="fill:#6DC82A;" d="M361.735,249.321c9.646,2.258,30.583,15.406,28.325,25.052c-2.258,9.647-26.854,12.139-36.5,9.882
		c-9.646-2.258-15.637-11.908-13.379-21.554C342.439,253.053,352.089,247.063,361.735,249.321z"/>
</g>
<path style="fill:#3E3D42;" d="M339.705,233.829c-2.43,0-4.798-0.982-6.503-2.7c-1.719-1.706-2.7-4.087-2.7-6.503
	c0-2.418,0.981-4.798,2.7-6.505c1.705-1.718,4.073-2.699,6.503-2.699c2.429,0,4.798,0.981,6.503,2.699
	c1.719,1.706,2.7,4.087,2.7,6.505c0,2.417-0.981,4.798-2.7,6.503C344.504,232.847,342.134,233.829,339.705,233.829z"/>
<g>
	<path style="fill:#5EAC24;" d="M362.765,271.989c-9.481-2.219-15.411-11.581-13.469-21.06c-4.437,2.34-7.882,6.502-9.114,11.77
		c-2.258,9.646,3.732,19.297,13.379,21.554c9.647,2.258,34.243-0.235,36.5-9.882c0.332-1.419,0.151-2.915-0.411-4.441
		C381.017,272.939,368.884,273.422,362.765,271.989z"/>
	<path style="fill:#5EAC24;" d="M496.805,265.61c-17.219,0-55.462-12.524-63.147-28.959c-4.546,4.157-7.377,8.726-7.377,13.522
		c0,19.193,45.322,34.751,64.514,34.751c15.807,0,19.958-10.559,20.93-25.005C508.56,263.513,503.84,265.61,496.805,265.61z"/>
</g>
<path style="fill:#9BC9FF;" d="M322.109,103.611c0,36.183-75.762,65.514-111.945,65.514s-65.514-29.331-65.514-65.514
	s29.331-65.514,65.514-65.514S322.109,67.429,322.109,103.611z"/>
<path style="fill:#57A4FF;" d="M214.704,102.759c9.646,2.258,30.583,15.406,28.325,25.052s-26.854,12.139-36.5,9.882
	c-9.646-2.258-15.637-11.908-13.379-21.554C195.406,106.492,205.057,100.501,214.704,102.759z"/>
<path style="fill:#3E3D42;" d="M192.673,87.268c-2.43,0-4.798-0.982-6.503-2.7c-1.719-1.706-2.7-4.087-2.7-6.503
	c0-2.418,0.981-4.798,2.7-6.504c1.705-1.718,4.073-2.699,6.503-2.699c2.429,0,4.798,0.981,6.503,2.699
	c1.719,1.706,2.7,4.087,2.7,6.504c0,2.417-0.981,4.798-2.7,6.503C197.471,86.286,195.102,87.268,192.673,87.268z"/>
<path style="fill:#57A4FF;" d="M316.609,86.641c-7.242,33.54-77.041,59.872-111.322,59.872c-27.342,0-50.761-16.755-60.579-40.552
	c1.239,35.092,30.06,63.165,65.454,63.165c36.183,0,111.945-29.331,111.945-65.514C322.109,97.742,320.104,92.054,316.609,86.641z"
	/>
<path style="fill:#2488FF;" d="M215.732,125.427c-9.481-2.219-15.411-11.581-13.469-21.06c-4.437,2.34-7.882,6.502-9.114,11.77
	c-2.258,9.646,3.732,19.297,13.379,21.554c9.646,2.258,34.243-0.235,36.5-9.882c0.332-1.419,0.152-2.915-0.411-4.441
	C233.984,126.377,221.852,126.86,215.732,125.427z"/>
<path style="fill:#57A4FF;" d="M343.763,68.86c19.193,0,21.204,15.559,21.204,34.751s-2.011,34.751-21.204,34.751
	s-64.514-15.559-64.514-34.751S324.571,68.86,343.763,68.86z"/>
<path style="fill:#2488FF;" d="M349.773,119.048c-17.219,0-55.462-12.524-63.147-28.959c-4.546,4.157-7.377,8.726-7.377,13.522
	c0,19.193,45.322,34.751,64.514,34.751c15.807,0,19.958-10.559,20.93-25.005C361.528,116.951,356.809,119.048,349.773,119.048z"/>
<path style="fill:#FF7956;" d="M177.459,251.501c0,36.183-75.762,65.514-111.945,65.514S0,287.683,0,251.501
	s29.331-65.514,65.514-65.514S177.459,215.318,177.459,251.501z"/>
<path style="fill:#FF6243;" d="M171.96,234.53c-7.242,33.54-77.041,59.872-111.322,59.872c-27.342,0-50.761-16.755-60.579-40.552
	c1.239,35.092,30.06,63.165,65.454,63.165c36.183,0,111.945-29.331,111.945-65.514C177.459,245.631,175.455,239.943,171.96,234.53z"
	/>
<path style="fill:#FF5023;" d="M199.115,216.749c19.193,0,21.204,15.559,21.204,34.751c0,19.193-2.011,34.751-21.204,34.751
	s-64.514-15.559-64.514-34.751S179.922,216.749,199.115,216.749z"/>
<path style="fill:#FF3501;" d="M205.124,266.937c-17.219,0-55.462-12.524-63.147-28.959c-4.546,4.157-7.377,8.726-7.377,13.522
	c0,19.193,45.322,34.751,64.514,34.751c15.807,0,19.958-10.559,20.93-25.005C216.879,264.841,212.159,266.937,205.124,266.937z"/>
<path style="fill:#FF5023;" d="M70.054,250.649c9.646,2.258,30.583,15.406,28.325,25.052c-2.258,9.647-26.854,12.139-36.5,9.882
	c-9.646-2.257-15.637-11.908-13.379-21.554C50.757,254.381,60.408,248.391,70.054,250.649z"/>
<path style="fill:#FF3501;" d="M71.082,273.317c-9.481-2.219-15.411-11.581-13.469-21.06c-4.437,2.34-7.882,6.502-9.114,11.77
	c-2.258,9.647,3.732,19.297,13.379,21.554c9.646,2.258,34.243-0.235,36.5-9.882c0.332-1.419,0.152-2.915-0.411-4.441
	C89.336,274.266,77.203,274.75,71.082,273.317z"/>
<path style="fill:#3E3D42;" d="M48.024,235.157c-2.43,0-4.798-0.982-6.503-2.7c-1.719-1.706-2.7-4.087-2.7-6.503
	c0-2.418,0.981-4.798,2.7-6.505c1.705-1.718,4.073-2.699,6.503-2.699c2.429,0,4.798,0.981,6.503,2.699
	c1.719,1.706,2.7,4.087,2.7,6.505c0,2.417-0.981,4.798-2.7,6.503C52.822,234.175,50.453,235.157,48.024,235.157z"/>
</svg>
